<svg width="24" height="24" viewBox="0 0 24 24" fill="none" xmlns="http://www.w3.org/2000/svg">
<path d="M6.17843 15.4872L6.92399 14.8208L6.91512 14.8109L6.906 14.8012L6.17843 15.4872ZM17.8216 15.4872L17.094 14.8012L17.0849 14.8109L17.076 14.8208L17.8216 15.4872ZM12 22L11.2544 22.6664L12 23.5005L12.7456 22.6664L12 22ZM12 9C11.4477 9 11 9.44772 11 10C11 10.5523 11.4477 11 12 11V9ZM12.02 11C12.5723 11 13.02 10.5523 13.02 10C13.02 9.44772 12.5723 9 12.02 9V11ZM5 10C5 6.13401 8.13401 3 12 3V1C7.02944 1 3 5.02944 3 10H5ZM12 3C15.866 3 19 6.13401 19 10H21C21 5.02944 16.9706 1 12 1V3ZM6.906 14.8012C5.72339 13.547 5 11.8591 5 10H3C3 12.3891 3.93225 14.5627 5.45086 16.1733L6.906 14.8012ZM19 10C19 11.8591 18.2766 13.547 17.094 14.8012L18.5491 16.1733C20.0678 14.5627 21 12.3891 21 10H19ZM12.7456 22.6664L18.5671 16.1537L17.076 14.8208L11.2544 21.3336L12.7456 22.6664ZM12.7456 21.3336L6.92399 14.8208L5.43286 16.1537L11.2544 22.6664L12.7456 21.3336ZM12 11H12.02V9H12V11ZM12 10V12C13.1046 12 14 11.1046 14 10H12ZM12 10H10C10 11.1046 10.8954 12 12 12V10ZM12 10V8C10.8954 8 10 8.89543 10 10H12ZM12 10H14C14 8.89543 13.1046 8 12 8V10Z" fill="#D6A84D"/>
</svg>
