<svg width="18" height="18" viewBox="0 0 18 18" fill="none" xmlns="http://www.w3.org/2000/svg">
<path d="M4.63382 11.6154L5.37938 10.949L5.37052 10.9391L5.36139 10.9294L4.63382 11.6154ZM13.3662 11.6154L12.6386 10.9294L12.6295 10.9391L12.6206 10.949L13.3662 11.6154ZM9 16.5L8.25444 17.1664L9 18.0005L9.74556 17.1664L9 16.5ZM9 6.5C8.44772 6.5 8 6.94772 8 7.5C8 8.05228 8.44772 8.5 9 8.5V6.5ZM9.015 8.5C9.56729 8.5 10.015 8.05228 10.015 7.5C10.015 6.94772 9.56729 6.5 9.015 6.5V8.5ZM4 7.5C4 4.73858 6.23858 2.5 9 2.5V0.5C5.13401 0.5 2 3.63401 2 7.5H4ZM9 2.5C11.7614 2.5 14 4.73858 14 7.5H16C16 3.63401 12.866 0.5 9 0.5V2.5ZM5.36139 10.9294C4.51643 10.0333 4 8.82803 4 7.5H2C2 9.35811 2.72529 11.049 3.90625 12.3015L5.36139 10.9294ZM14 7.5C14 8.82803 13.4836 10.0333 12.6386 10.9294L14.0937 12.3015C15.2747 11.049 16 9.35811 16 7.5H14ZM9.74556 17.1664L14.1117 12.2819L12.6206 10.949L8.25444 15.8336L9.74556 17.1664ZM9.74556 15.8336L5.37938 10.949L3.88826 12.2819L8.25444 17.1664L9.74556 15.8336ZM9 8.5H9.015V6.5H9V8.5ZM8.75 7.5C8.75 7.36193 8.86193 7.25 9 7.25V9.25C9.9665 9.25 10.75 8.4665 10.75 7.5H8.75ZM9 7.25C9.13807 7.25 9.25 7.36193 9.25 7.5H7.25C7.25 8.4665 8.0335 9.25 9 9.25V7.25ZM9.25 7.5C9.25 7.63807 9.13807 7.75 9 7.75V5.75C8.0335 5.75 7.25 6.5335 7.25 7.5H9.25ZM9 7.75C8.86193 7.75 8.75 7.63807 8.75 7.5H10.75C10.75 6.5335 9.9665 5.75 9 5.75V7.75Z" fill="#111827"/>
</svg>
