<svg width="16" height="17" viewBox="0 0 16 17" fill="none" xmlns="http://www.w3.org/2000/svg">
<g clip-path="url(#clip0_67_12832)">
<path d="M7.26134 3.128C7.53462 2.47096 8.46538 2.47096 8.73866 3.12799L9.92838 5.98842C10.0436 6.26541 10.3041 6.45466 10.6031 6.47864L13.6912 6.72621C14.4005 6.78307 14.6881 7.66828 14.1477 8.13122L11.7949 10.1466C11.5671 10.3418 11.4676 10.648 11.5372 10.9398L12.256 13.9532C12.4211 14.6454 11.6681 15.1925 11.0608 14.8216L8.417 13.2068C8.16099 13.0504 7.83901 13.0504 7.583 13.2068L4.93918 14.8216C4.3319 15.1925 3.5789 14.6454 3.74401 13.9532L4.46282 10.9398C4.53243 10.648 4.43293 10.3418 4.2051 10.1466L1.85231 8.13122C1.31188 7.66828 1.5995 6.78307 2.30883 6.72621L5.3969 6.47864C5.69593 6.45466 5.95642 6.26541 6.07162 5.98842L7.26134 3.128Z" fill="#E5E7EB"/>
<g clip-path="url(#clip1_67_12832)">
<path d="M7.26134 3.128C7.53462 2.47096 8.46538 2.47096 8.73866 3.12799L9.92838 5.98842C10.0436 6.26541 10.3041 6.45466 10.6031 6.47864L13.6912 6.72621C14.4005 6.78307 14.6881 7.66828 14.1477 8.13122L11.7949 10.1466C11.5671 10.3418 11.4676 10.648 11.5372 10.9398L12.256 13.9532C12.4211 14.6454 11.6681 15.1925 11.0608 14.8216L8.417 13.2068C8.16099 13.0504 7.83901 13.0504 7.583 13.2068L4.93918 14.8216C4.3319 15.1925 3.5789 14.6454 3.74401 13.9532L4.46282 10.9398C4.53243 10.648 4.43293 10.3418 4.2051 10.1466L1.85231 8.13122C1.31188 7.66828 1.5995 6.78307 2.30883 6.72621L5.3969 6.47864C5.69593 6.45466 5.95642 6.26541 6.07162 5.98842L7.26134 3.128Z" fill="#111827"/>
</g>
</g>
<defs>
<clipPath id="clip0_67_12832">
<rect width="16" height="16" fill="white" transform="translate(0 0.952148)"/>
</clipPath>
<clipPath id="clip1_67_12832">
<rect width="16" height="16" fill="white" transform="translate(0 0.952148)"/>
</clipPath>
</defs>
</svg>
