<svg width="18" height="18" viewBox="0 0 18 18" fill="none" xmlns="http://www.w3.org/2000/svg">
<path d="M11.25 8.25V9.75M11.25 3V5.25M11.25 12.75V15M3 3H15C15.8284 3 16.5 3.67157 16.5 4.5V4.75C16.5 5.85457 15.4499 6.72467 14.7531 7.58179C14.4386 7.9688 14.25 8.46238 14.25 9C14.25 9.53762 14.4386 10.0312 14.7531 10.4182C15.4499 11.2753 16.5 12.1454 16.5 13.25V13.5C16.5 14.3284 15.8284 15 15 15H3C2.17157 15 1.5 14.3284 1.5 13.5V13.25C1.5 12.1454 2.55014 11.2753 3.24686 10.4182C3.56144 10.0312 3.75 9.53762 3.75 9C3.75 8.46238 3.56144 7.9688 3.24686 7.58179C2.55014 6.72467 1.5 5.85457 1.5 4.75V4.5C1.5 3.67157 2.17157 3 3 3Z" stroke="#111827" stroke-width="2" stroke-linecap="round"/>
</svg>
